<svg id="Layer_1" enable-background="new 0 0 512.128 512.128" height="512" viewBox="0 0 512.128 512.128" width="512" xmlns="http://www.w3.org/2000/svg"><path d="m510.221 148.673-55.008-97.913c-1.736-3.091-4.519-5.459-7.847-6.679l-73.891-27.095c-1.64-.601-3.374-.909-5.12-.909h-4.462-220.12c-1.747 0-3.48.308-5.12.909l-73.891 27.095c-3.328 1.22-6.11 3.588-7.847 6.679l-55.008 97.913c-3.492 6.215-2.082 14.034 3.361 18.639l70.813 59.907c6.158 5.207 15.344 4.561 20.71-1.46l13.27-14.891v270.31c0 8.214 6.659 14.873 14.873 14.873h262.26c8.214 0 14.873-6.659 14.873-14.873v-270.31l13.27 14.891c5.366 6.023 14.553 6.668 20.71 1.46l70.813-59.907c5.443-4.604 6.853-12.423 3.361-18.639zm-76.959-76.255-293.455 380.49v-48.706l265.27-343.946 26.893 9.861zm-131.229-26.595c-4.253 20.259-22.296 35.546-43.763 35.546-21.553 0-39.535-15.116-43.762-35.546zm-217.807 149.325-50.37-42.613 46.302-82.417 66.255-24.294h37.979c4.534 37.07 35.871 65.292 73.877 65.292 37.87 0 69.324-28.575 73.873-65.292h33.572l10.078 3.695-235.985 305.976v-183.673c0-6.172-3.812-11.702-9.579-13.899-5.766-2.195-12.292-.604-16.398 4.004zm82.814 271.156 205.281-266.164v266.165h-205.281zm260.861-271.156-27.73-31.118 48.922-63.432 29.178 51.937z"/></svg>